# xmcd CD database file
#
# Track frame offsets:
#	150
#	41462
#	85261
#	117769
#	159642
#	189700
#	214465
#	243779
#	278329
#
# Disc length: 4372 seconds
#
# Revision: 2
# Processed by: cddbd v1.5.2PL0 Copyright (c) Steve Scherf et al.
# Submitted via: CDex 1.70beta2
#
DISCID=73111209
DTITLE=川上とも子・緑川光・他 - ドラマCD AIR 第四巻 神尾観鈴・DREAM 前編
DYEAR=2005
DGENRE=ゲーム関連
TTITLE0=承前・観鈴の夢
TTITLE1=観鈴と晴子
TTITLE2=海へ行きたい
TTITLE3=もうひとりの私
TTITLE4=往人さん、ありがとう
TTITLE5=大切な人
TTITLE6=二人の心
TTITLE7=一緒にいきたい
TTITLE8=願い
EXTD=YEAR: 2005
EXTT0=
EXTT1=
EXTT2=
EXTT3=
EXTT4=
EXTT5=
EXTT6=
EXTT7=
EXTT8=
PLAYORDER=
